<svg width="300" height="55" viewBox="0 0 300 55" fill="none" xmlns="http://www.w3.org/2000/svg">
<path fill-rule="evenodd" clip-rule="evenodd" d="M97.7517 30.7024C103.702 28.9206 108.04 23.4206 108.043 16.8903C108.04 8.92059 101.585 2.46605 93.6153 2.46302H68.7623V51.9267H77.0077V31.3176H88.4895L100.927 51.9267H110.543L97.7517 30.7024ZM77.0077 23.0706V10.7039H93.6153C97.0274 10.71 99.7926 13.4736 99.7971 16.8903C99.7926 20.2994 97.0274 23.0645 93.6153 23.0706H77.0077ZM62.9203 7.7259C62.9203 11.0789 60.2036 13.7986 56.8521 13.7986C53.5006 13.7986 50.7824 11.0789 50.7824 7.7259C50.7824 4.37438 53.5006 1.65771 56.8521 1.65771C60.2036 1.65771 62.9203 4.37438 62.9203 7.7259ZM0.000610352 27.4229C0.0021255 13.1926 11.5324 1.66075 25.7642 1.65771C39.9945 1.66075 51.5233 13.1926 51.5264 27.4229C51.5233 41.6501 39.9945 53.182 25.7642 53.185C11.5324 53.182 0.0021255 41.6501 0.000610352 27.4229ZM13.3749 15.0304C10.1991 18.2183 8.24607 22.5698 8.24455 27.4229C8.24607 32.2714 10.1991 36.6259 13.3749 39.8077C16.5582 42.985 20.9127 44.938 25.7642 44.9411C30.6142 44.938 34.9658 42.985 38.1506 39.8077C41.3279 36.6259 43.2809 32.2714 43.2809 27.4229C43.2809 22.5698 41.3279 18.2183 38.1506 15.0304C34.9658 11.8577 30.6142 9.9062 25.7642 9.90317C20.9127 9.9062 16.5582 11.8577 13.3749 15.0304Z" fill="white"/>
<path fill-rule="evenodd" clip-rule="evenodd" d="M283.743 2.46216H273.724L261.036 20.8258L248.347 2.46216H238.329L256.903 29.3561V51.9258H265.152V29.3758L283.743 2.46216Z" fill="white"/>
<path fill-rule="evenodd" clip-rule="evenodd" d="M293.497 1.35962C290.127 1.35962 287.394 4.09144 287.394 7.45962C287.394 10.8278 290.127 13.5596 293.497 13.5596C296.862 13.5596 299.597 10.8278 299.597 7.45962C299.597 4.09144 296.862 1.35962 293.497 1.35962ZM293.497 12.5839C290.668 12.5839 288.373 10.2884 288.373 7.45962C288.373 4.62932 290.668 2.33386 293.497 2.33386C296.321 2.33386 298.618 4.62932 298.618 7.45962C298.618 10.2884 296.321 12.5839 293.497 12.5839Z" fill="white"/>
<path fill-rule="evenodd" clip-rule="evenodd" d="M296.232 6.11803C296.232 5.11651 295.425 4.30591 294.422 4.30591H290.988V10.5226H292.02V7.93318H293.761L295.008 10.5226H296.161L294.885 7.87409C295.663 7.66954 296.232 6.96197 296.232 6.11803ZM292.02 5.34227H294.422C294.853 5.34227 295.196 5.68924 295.196 6.11803C295.196 6.54833 294.853 6.89682 294.422 6.89682H292.02V5.34227Z" fill="white"/>
<path fill-rule="evenodd" clip-rule="evenodd" d="M150.7 10.7031V2.46216H116.312V51.9258H150.7V43.6803H124.553V31.3152H149.441V23.0697H124.553V10.7031H150.7Z" fill="white"/>
<path fill-rule="evenodd" clip-rule="evenodd" d="M176.217 51.9258V2.46216H184.461V43.6803H208.242V51.9258H176.217Z" fill="white"/>
<path fill-rule="evenodd" clip-rule="evenodd" d="M214.962 51.9258V2.46216H223.209V43.6803H246.989V51.9258H214.962Z" fill="white"/>
<path fill-rule="evenodd" clip-rule="evenodd" d="M159.352 51.9258H167.594V2.46216H159.352V51.9258Z" fill="white"/>
</svg>
